<?xml version="1.0" standalone="no"?>
<!DOCTYPE svg PUBLIC "-//W3C//DTD SVG 20010904//EN"
 "http://www.w3.org/TR/2001/REC-SVG-20010904/DTD/svg10.dtd">
<svg version="1.0" xmlns="http://www.w3.org/2000/svg"
 width="192.000000pt" height="192.000000pt" viewBox="0 0 192.000000 192.000000"
 preserveAspectRatio="xMidYMid meet">
<metadata>
Created by potrace 1.11, written by Peter Selinger 2001-2013
</metadata>
<g transform="translate(0.000000,192.000000) scale(0.100000,-0.100000)"
fill="#000000" stroke="none">
<path d="M1480 1753 c-91 -7 -199 -12 -242 -11 -42 2 -74 -1 -71 -5 3 -5 -4
-18 -14 -30 -30 -33 -35 -57 -18 -83 22 -33 27 -110 9 -124 -7 -7 -12 -16 -9
-20 3 -4 -7 -19 -20 -33 -21 -20 -24 -29 -16 -50 5 -14 7 -27 5 -30 -3 -3 2
-21 10 -42 9 -20 15 -39 14 -43 -1 -9 10 -40 24 -66 5 -10 11 -45 13 -77 2
-47 -1 -61 -14 -69 -9 -5 -12 -10 -7 -10 5 0 3 -7 -4 -15 -8 -10 -9 -24 -4
-42 11 -40 12 -143 1 -143 -5 0 -5 -5 1 -12 10 -13 12 -18 12 -41 0 -7 11 -24
24 -39 14 -14 22 -28 20 -31 -3 -3 -1 -14 4 -24 6 -10 11 -31 13 -48 2 -16 7
-36 12 -42 6 -8 5 -18 -2 -26 -6 -8 -8 -17 -4 -21 4 -4 3 -10 -3 -14 -6 -4
-15 -18 -19 -31 -4 -13 -3 -21 1 -18 11 6 10 -102 0 -155 -4 -21 -18 -49 -32
-63 -14 -14 -22 -30 -19 -35 8 -13 182 -13 320 1 170 16 256 27 262 32 5 6 -9
463 -34 1065 -15 361 -19 412 -32 411 -9 -1 -90 -8 -181 -16z"/>
<path d="M423 1712 l-153 -3 -2 -722 c-2 -397 -1 -730 1 -739 3 -17 21 -18
215 -18 199 0 264 7 220 24 -11 4 -14 10 -8 14 8 6 29 49 50 107 4 11 8 43 9
70 1 28 5 61 9 75 4 14 8 31 8 38 1 6 5 12 10 12 4 0 8 6 8 13 0 6 7 25 16 42
15 30 12 75 -6 75 -6 0 -8 16 -4 40 4 23 3 40 -3 40 -5 0 -10 16 -11 36 -1 20
-8 44 -15 53 -8 9 -12 22 -10 29 3 7 -4 12 -16 12 -20 0 -21 1 -5 25 12 18 14
37 9 77 -3 29 -5 60 -5 68 0 8 0 36 0 63 0 34 4 49 15 53 8 4 15 13 15 21 0 8
10 29 22 45 23 33 35 122 18 133 -5 3 -10 23 -10 44 0 22 -6 44 -15 51 -8 7
-15 18 -15 24 0 6 -18 31 -40 56 -22 25 -40 53 -40 63 0 9 -4 17 -10 17 -5 0
-7 7 -3 16 9 23 -28 51 -67 50 -19 -1 -104 -2 -187 -4z"/>
</g>
</svg>
